<svg width="4000" height="2500" viewBox="0 0 4000 2500" fill="none" xmlns="http://www.w3.org/2000/svg">
<rect x="29.5" y="29.5" width="3941" height="2441" fill="#3F9441" stroke="#C2D1D8" stroke-width="59"/>
<path d="M2433 1250C2433 1466.13 2241.02 1645 1999.5 1645C1757.98 1645 1566 1466.13 1566 1250C1566 1033.87 1757.98 855 1999.5 855C2241.02 855 2433 1033.87 2433 1250Z" stroke="#C2D1D8" stroke-width="50"/>
<rect x="1975" width="50" height="2500" fill="#C2D1D8"/>
<circle cx="2000" cy="1250" r="75" fill="#C2D1D8"/>
<rect x="26" y="534" width="650" height="1432" stroke="#C2D1D8" stroke-width="50"/>
<mask id="path-6-outside-1" maskUnits="userSpaceOnUse" x="651" y="950" width="350" height="600" fill="black">
<rect fill="white" x="651" y="950" width="350" height="600"/>
<path d="M701 1500C767.304 1500 830.893 1473.66 877.777 1426.78C924.661 1379.89 951 1316.3 951 1250C951 1183.7 924.661 1120.11 877.777 1073.22C830.893 1026.34 767.304 1000 701 1000L701 1250L701 1500Z"/>
</mask>
<path d="M701 1500C767.304 1500 830.893 1473.66 877.777 1426.78C924.661 1379.89 951 1316.3 951 1250C951 1183.7 924.661 1120.11 877.777 1073.22C830.893 1026.34 767.304 1000 701 1000L701 1250L701 1500Z" stroke="#C2D1D8" stroke-width="100" mask="url(#path-6-outside-1)"/>
<circle cx="451" cy="1250" r="40" fill="#C2D1D8"/>
<rect x="26" y="888" width="278" height="724" stroke="#C2D1D8" stroke-width="50"/>
<rect x="3323" y="534" width="650" height="1432" stroke="#C2D1D8" stroke-width="50"/>
<mask id="path-10-outside-2" maskUnits="userSpaceOnUse" x="2999" y="950" width="350" height="600" fill="black">
<rect fill="white" x="2999" y="950" width="350" height="600"/>
<path d="M3299 1000C3232.7 1000 3169.11 1026.34 3122.22 1073.22C3075.34 1120.11 3049 1183.7 3049 1250C3049 1316.3 3075.34 1379.89 3122.22 1426.78C3169.11 1473.66 3232.7 1500 3299 1500L3299 1250V1000Z"/>
</mask>
<path d="M3299 1000C3232.7 1000 3169.11 1026.34 3122.22 1073.22C3075.34 1120.11 3049 1183.7 3049 1250C3049 1316.3 3075.34 1379.89 3122.22 1426.78C3169.11 1473.66 3232.7 1500 3299 1500L3299 1250V1000Z" stroke="#C2D1D8" stroke-width="100" mask="url(#path-10-outside-2)"/>
<rect x="3673" y="888" width="278" height="724" stroke="#C2D1D8" stroke-width="50"/>
<circle cx="3509" cy="1250" r="40" fill="#C2D1D8"/>
</svg>
