<?xml version="1.0" encoding="UTF-8"?>
<svg version="1.1" xmlns="http://www.w3.org/2000/svg" width="224" height="225">
<path d="M0 0 C73.92 0 147.84 0 224 0 C224 74.25 224 148.5 224 225 C150.08 225 76.16 225 0 225 C0 150.75 0 76.5 0 0 Z " fill="#FFFEFE" transform="translate(0,0)"/>
<path d="M0 0 C2.35848246 0.08034943 4.71722789 0.15333734 7.07617188 0.21875 C12.82739661 0.39418267 18.56871829 0.66099153 24.3125 1 C22.79408953 4.1099088 21.09624927 6.88035819 19.109375 9.71875 C18.14427002 11.10163208 18.14427002 11.10163208 17.15966797 12.51245117 C16.12156982 13.99128784 16.12156982 13.99128784 15.0625 15.5 C14.34594238 16.52520752 13.62938477 17.55041504 12.89111328 18.60668945 C10.70067997 21.73950724 8.50675427 24.86985772 6.3125 28 C5.08568064 29.75372659 3.85910162 31.50762135 2.6328125 33.26171875 C-0.23233079 37.35892197 -3.10049581 41.4539983 -5.96972656 45.54833984 C-8.29281198 48.86392025 -10.61436286 52.18057357 -12.93579102 55.49731445 C-14.09500294 57.15349306 -15.25434345 58.80958167 -16.41381836 60.46557617 C-19.46938765 64.82975152 -22.52306472 69.19523642 -25.57421875 73.5625 C-26.21037109 74.47257812 -26.84652344 75.38265625 -27.50195312 76.3203125 C-28.72125658 78.06471744 -29.94003406 79.80949019 -31.15820312 81.5546875 C-31.70798828 82.34101562 -32.25777344 83.12734375 -32.82421875 83.9375 C-33.54677856 84.97197266 -33.54677856 84.97197266 -34.28393555 86.02734375 C-35.71894543 88.04419535 -37.19410371 90.02610048 -38.6875 92 C-16.10458067 94.99451021 -16.10458067 94.99451021 5.40283203 90.359375 C10.04445385 86.02197369 12.52193072 80.59318797 14.99755859 74.82226562 C17.18053976 70.13692172 20.25745634 66.14704348 23.3125 62 C24.4836414 60.33647462 25.65031585 58.66979546 26.8125 57 C29.14583333 53.66666667 31.47916667 50.33333333 33.8125 47 C34.3904834 46.1742749 34.9684668 45.3485498 35.56396484 44.49780273 C36.72561751 42.83836844 37.88740045 41.17902534 39.04931641 39.51977539 C42.04379575 35.24320842 45.035698 30.96487264 48.0234375 26.68359375 C48.94382813 25.36584961 48.94382813 25.36584961 49.8828125 24.02148438 C51.03731978 22.36843986 52.19104172 20.71484638 53.34375 19.06054688 C54.39183955 17.56056364 55.45152876 16.0685928 56.52474976 14.58648682 C58.36096917 12.00661205 58.36096917 12.00661205 59.93936157 9.16802979 C64.60529431 1.58052486 64.60529431 1.58052486 69.14950562 0.03529358 C72.52578175 -0.27211046 75.73885466 -0.23969547 79.125 -0.07421875 C80.33446289 -0.05865433 81.54392578 -0.0430899 82.79003906 -0.02705383 C86.6339726 0.03428124 90.47071825 0.17221698 94.3125 0.3125 C96.925679 0.36770345 99.53896916 0.41788887 102.15234375 0.46289062 C108.54149387 0.58383846 114.9264836 0.76762358 121.3125 1 C120.20547447 2.74874015 119.09724919 4.49672084 117.98852539 6.24438477 C117.3715126 7.21787369 116.75449982 8.19136261 116.11878967 9.1943512 C113.76419057 12.85167054 111.28301805 16.40255035 108.75 19.9375 C107.70402032 21.40856503 106.65846522 22.87993201 105.61328125 24.3515625 C104.80431396 25.48899902 104.80431396 25.48899902 103.97900391 26.64941406 C101.11361601 30.69101304 98.27606261 34.75203696 95.4375 38.8125 C94.85282959 39.64837646 94.26815918 40.48425293 93.66577148 41.34545898 C92.4753094 43.04744647 91.28496144 44.74951378 90.09472656 46.45166016 C87.16873267 50.6354306 84.2405169 54.81764524 81.3125 59 C80.14582241 60.66665902 78.97915575 62.33332569 77.8125 64 C66.14583333 80.66666667 54.47916667 97.33333333 42.8125 114 C42.23411377 114.82628906 41.65572754 115.65257812 41.05981445 116.50390625 C39.90218713 118.15761335 38.74447339 119.81125996 37.58666992 121.46484375 C34.53096145 125.82927971 31.47710327 130.19499596 28.42578125 134.5625 C27.78962891 135.47257813 27.15347656 136.38265625 26.49804688 137.3203125 C25.27874342 139.06471744 24.05996594 140.80949019 22.84179688 142.5546875 C22.29201172 143.34101563 21.74222656 144.12734375 21.17578125 144.9375 C20.69407471 145.62714844 20.21236816 146.31679687 19.71606445 147.02734375 C18.28207625 149.04275942 16.79660246 151.02119672 15.3125 153 C37.5875 153.495 37.5875 153.495 60.3125 154 C56.89086996 156.73730403 54.56580807 158.55988299 50.82373047 160.40673828 C49.96447968 160.83463654 49.10522888 161.26253479 48.21994019 161.70339966 C47.2991568 162.1544809 46.37837341 162.60556213 45.4296875 163.0703125 C43.9763652 163.79201126 43.9763652 163.79201126 42.49368286 164.52828979 C39.39442071 166.06625526 36.29122993 167.59607376 33.1875 169.125 C30.14522524 170.62843564 27.10386138 172.13367513 24.0635376 173.64105225 C22.06330379 174.6327498 20.06212731 175.62254835 18.05999756 176.6104126 C13.2375478 179.00053038 8.45397456 181.43867264 3.72363281 184.00683594 C2.85191437 184.47846161 1.98019592 184.95008728 1.08206177 185.43600464 C-0.54972554 186.32518548 -2.17588242 187.22480661 -3.79519653 188.13650513 C-4.51617523 188.52957855 -5.23715393 188.92265198 -5.97998047 189.32763672 C-6.91461624 189.85053787 -6.91461624 189.85053787 -7.86813354 190.38400269 C-10.18599394 191.16877904 -11.41832382 190.83849397 -13.6875 190 C-15.13208008 188.68408203 -15.13208008 188.68408203 -16.45703125 187.0078125 C-17.19687256 186.08137939 -17.19687256 186.08137939 -17.95166016 185.13623047 C-18.4626123 184.47252441 -18.97356445 183.80881836 -19.5 183.125 C-20.02899902 182.44969238 -20.55799805 181.77438477 -21.10302734 181.07861328 C-35.42839608 162.56387394 -35.42839608 162.56387394 -35.10546875 151 C-33.60511599 140.23111289 -25.35658077 131.0996357 -19.08203125 122.62109375 C-15.38911028 117.62750816 -11.87337161 112.52262955 -8.37817383 107.38964844 C-7.75785278 106.47940918 -7.75785278 106.47940918 -7.125 105.55078125 C-6.59712891 104.77214722 -6.59712891 104.77214722 -6.05859375 103.9777832 C-3.96776625 100.96179432 -1.82539258 97.98273942 0.3125 95 C-13.84961451 101.59037047 -27.76031022 108.58950462 -41.6159668 115.79858398 C-44.15487332 117.11805501 -46.69643648 118.43229427 -49.23828125 119.74609375 C-50.38203972 120.34447304 -50.38203972 120.34447304 -51.54890442 120.9549408 C-55.52422952 123.00728816 -59.37954316 124.72059 -63.6875 126 C-82.72615112 102.41686073 -82.72615112 102.41686073 -83 93.4375 C-83.03738281 92.65246094 -83.07476562 91.86742188 -83.11328125 91.05859375 C-81.96544067 82.81309672 -77.69578763 75.96474978 -72.9375 69.3125 C-72.37675781 68.51070313 -71.81601563 67.70890625 -71.23828125 66.8828125 C-70.02944296 65.15552278 -68.81642224 63.43115388 -67.59960938 61.70947266 C-64.95376647 57.96029435 -62.33681436 54.19128783 -59.71850586 50.42285156 C-58.36118723 48.46951359 -57.00261943 46.51704306 -55.64282227 44.56542969 C-50.40117864 37.04187721 -45.20930571 29.48555543 -40.04296875 21.91015625 C-39.51920654 21.18973145 -38.99544434 20.46930664 -38.45581055 19.72705078 C-36.98694496 17.46179763 -35.89034096 15.34289347 -34.75708008 12.90966797 C-26.95657516 -2.47094706 -15.74598323 -0.93263908 0 0 Z " fill="#FF4B44" transform="translate(92.6875,16)"/>
</svg>
